<svg width="22" height="22" viewBox="0 0 22 22" fill="none" xmlns="http://www.w3.org/2000/svg">
<path d="M7.82805 20.6078C8.14089 20.4732 8.36 20.1621 8.36 19.8V17.424C8.36 17.3373 8.36705 17.2471 8.37805 17.1556C8.37189 17.1574 8.36616 17.1587 8.36 17.16C8.36 17.16 7.04 17.16 6.776 17.16C6.116 17.16 5.544 16.896 5.28 16.368C4.972 15.796 4.84 14.828 4.048 14.3C3.916 14.212 4.004 14.08 4.268 14.08C4.532 14.124 5.104 14.476 5.456 14.96C5.852 15.444 6.248 15.84 6.952 15.84C8.04628 15.84 8.63281 15.785 8.98569 15.5958C9.39665 14.9846 9.96556 14.52 10.56 14.52V14.509C8.06608 14.4289 6.47284 13.6 5.731 12.32C4.1184 12.3385 2.71436 12.4982 1.91312 12.6311C1.8876 12.4872 1.8656 12.3424 1.84668 12.1968C2.63736 12.0666 3.9776 11.9121 5.51848 11.8826C5.4692 11.7612 5.42653 11.6367 5.39045 11.5091C3.84561 11.4308 2.5124 11.4919 1.78816 11.5518C1.77936 11.4057 1.76748 11.26 1.76572 11.1122C2.49128 11.0528 3.7884 10.9934 5.29364 11.0634C5.25888 10.8434 5.23644 10.6185 5.23644 10.3844C5.23644 9.63644 5.50044 8.84444 5.98444 8.18444C5.76444 7.43644 5.45644 5.85244 6.07244 5.28044C7.26044 5.28044 8.09645 5.85244 8.49245 6.20444C9.24001 5.896 10.076 5.72 11 5.72C11.924 5.72 12.76 5.896 13.464 6.204C13.86 5.852 14.696 5.28 15.884 5.28C16.544 5.896 16.192 7.48 15.972 8.184C16.456 8.844 16.72 9.592 16.676 10.384C16.676 10.597 16.6562 10.8024 16.6276 11.004C18.1672 10.9283 19.4995 10.989 20.2374 11.0488C20.2365 11.1971 20.2228 11.3419 20.2149 11.4884C19.4797 11.4277 18.1139 11.3652 16.537 11.4492C16.4978 11.5971 16.4503 11.741 16.394 11.8804C17.9542 11.9007 19.3266 12.0516 20.1551 12.1836C20.1362 12.3297 20.1142 12.4744 20.0886 12.6179C19.2474 12.4832 17.8134 12.3257 16.1819 12.3178C15.4493 13.5841 13.8851 14.41 11.44 14.5064V14.52C12.584 14.52 13.64 16.236 13.64 17.424V19.8C13.64 20.1621 13.8591 20.4732 14.172 20.6078C18.2028 19.2738 21.12 15.4722 21.12 11C21.12 5.41992 16.5805 0.880005 11 0.880005C5.41949 0.880005 0.880005 5.41992 0.880005 11C0.880005 15.4722 3.7972 19.2738 7.82805 20.6078Z" fill="white"/>
</svg>
