<svg width="22" height="22" viewBox="0 0 22 22" fill="none" xmlns="http://www.w3.org/2000/svg">
<g clip-path="url(#clip0_280536_374)">
<path d="M11 0.880005C16.5893 0.880005 21.12 5.41068 21.12 11C21.12 16.5893 16.5893 21.12 11 21.12C5.41068 21.12 0.880005 16.5893 0.880005 11C0.880005 5.41068 5.41068 0.880005 11 0.880005ZM14.491 15.125C14.6771 14.5539 15.5492 8.86204 15.657 7.74048C15.6895 7.4008 15.5822 7.17508 15.3718 7.07432C15.1175 6.952 14.7409 7.01317 14.304 7.17069C13.7047 7.38673 6.0434 10.6396 5.60076 10.828C5.181 11.0062 4.78412 11.2006 4.78412 11.4822C4.78412 11.6802 4.90161 11.7916 5.22545 11.9073C5.56249 12.0274 6.41124 12.2848 6.9124 12.423C7.39508 12.5563 7.94465 12.4406 8.25265 12.2492C8.57913 12.0463 12.3468 9.52512 12.6174 9.30424C12.8876 9.08336 13.1032 9.36629 12.8823 9.58761C12.6614 9.80849 10.0751 12.3187 9.73412 12.6663C9.32008 13.0882 9.61401 13.5256 9.89165 13.7007C10.2089 13.9005 12.4903 15.4308 12.8339 15.6763C13.1776 15.9218 13.526 16.0332 13.845 16.0332C14.164 16.0332 14.3321 15.613 14.491 15.125Z" fill="white"/>
</g>
<defs>
<clipPath id="clip0_280536_374">
<rect width="22" height="22" fill="white"/>
</clipPath>
</defs>
</svg>
