<svg width="22" height="22" viewBox="0 0 22 22" fill="none" xmlns="http://www.w3.org/2000/svg">
<g clip-path="url(#clip0_280536_370)">
<path d="M11 0.880005C5.41992 0.880005 0.880005 5.41992 0.880005 11C0.880005 16.5801 5.41992 21.12 11 21.12C16.5805 21.12 21.12 16.5801 21.12 11C21.12 5.41992 16.5805 0.880005 11 0.880005ZM15.3881 12.9954C16.3724 13.8692 16.577 14.1812 16.6104 14.2344C17.0183 14.8812 16.1581 14.96 16.1581 14.96H14.3453C14.3453 14.96 13.904 14.9648 13.5269 14.7149C12.9122 14.3123 12.2685 13.5318 11.8162 13.6673C11.4365 13.7808 11.44 14.2938 11.44 14.7325C11.44 14.8896 11.3049 14.96 11 14.96C10.6951 14.96 10.5684 14.96 10.4333 14.96C9.4402 14.96 8.36264 14.6256 7.28772 13.5023C5.76708 11.9143 4.43344 8.71553 4.43344 8.71553C4.43344 8.71553 4.35468 8.55448 4.44048 8.45636C4.53772 8.34636 4.80216 8.36044 4.80216 8.36044L6.55997 8.36C6.55997 8.36 6.7254 8.39124 6.8442 8.47484C6.94232 8.54348 6.99689 8.6746 6.99689 8.6746C6.99689 8.6746 7.29212 9.64964 7.66832 10.2714C8.40312 11.4849 8.745 11.5157 8.99448 11.385C9.3588 11.1958 9.24 9.90573 9.24 9.90573C9.24 9.90573 9.25628 9.35177 9.0662 9.10493C8.91968 8.91397 8.6394 8.81233 8.51708 8.79649C8.41808 8.78373 8.58352 8.61036 8.79428 8.51136C9.07588 8.38596 9.45912 8.35384 10.12 8.36C10.6344 8.36484 10.7826 8.39565 10.9833 8.44185C11.59 8.58177 11.44 8.95092 11.44 10.2472C11.44 10.6625 11.3828 11.2464 11.6961 11.44C11.8312 11.5236 12.294 11.6257 13.1177 10.2881C13.5089 9.6536 13.82 8.60112 13.82 8.60112C13.82 8.60112 13.8842 8.48541 13.9841 8.42821C14.0862 8.36969 14.0831 8.371 14.223 8.371C14.3629 8.371 15.7661 8.36 16.0741 8.36C16.3816 8.36 16.6703 8.35649 16.72 8.53689C16.7913 8.79605 16.493 9.68396 15.737 10.6476C14.4949 12.2289 14.3572 12.0811 15.3881 12.9954Z" fill="white"/>
</g>
<defs>
<clipPath id="clip0_280536_370">
<rect width="22" height="22" fill="white"/>
</clipPath>
</defs>
</svg>
